Coordinates
version=1
nRows=8
nColumns=40
inDegrees=yes

Units are S.I. units (second, meters, Newtons, ...)
Angles are in degrees.

endheader
time	pelvis_tilt	pelvis_list	pelvis_rotation	pelvis_tx	pelvis_ty	pelvis_tz	hip_flexion_r	hip_adduction_r	hip_rotation_r	knee_angle_r	knee_angle_r_beta	ankle_angle_r	subtalar_angle_r	mtp_angle_r	hip_flexion_l	hip_adduction_l	hip_rotation_l	knee_angle_l	knee_angle_l_beta	ankle_angle_l	subtalar_angle_l	mtp_angle_l	lumbar_extension	lumbar_bending	lumbar_rotation	arm_flex_r	arm_add_r	arm_rot_r	elbow_flex_r	pro_sup_r	wrist_flex_r	wrist_dev_r	arm_flex_l	arm_add_l	arm_rot_l	elbow_flex_l	pro_sup_l	wrist_flex_l	wrist_dev_l
     24.93500000	     -7.69243553	     -4.68075998	     -2.95801125	      0.76474025	      0.92509872	      0.45474226	     30.85308398	     -0.14893159	    -10.88837487	     17.24915531	     17.24915531	      1.44484155	      0.25299365	      2.50648016	      8.33207992	     -5.05837114	     -8.49604941	     17.65290041	     17.65290041	     18.65774084	     -8.89410221	      2.28144508	    -12.17612205	      7.54165880	      0.20219752	     -0.25476820	    -13.41086995	    -19.61985687	     24.15848909	     46.21329237	      0.00000000	      0.00000000	      5.22126714	    -17.94582241	     -0.84479104	     85.07902364	     45.99427559	      0.00000000	      0.00000000
     24.94807143	     -7.80258719	     -4.33830005	     -2.99420395	      0.76485314	      0.92346566	      0.45573449	     30.35745796	     -0.26721004	    -11.37594403	     14.96651986	     14.96651986	      1.64751036	      1.62735950	      3.50600327	      7.88071282	     -4.71912779	     -8.64454363	     17.48158665	     17.48158665	     18.97896090	     -8.79103487	      1.94475025	    -11.94014123	      7.22028889	      0.16331645	      0.36474516	    -13.05905801	    -19.52834391	     24.48494891	     46.20004079	      0.00000000	      0.00000000	      5.33261232	    -17.76194941	     -0.55569590	     85.11654544	     45.99225154	      0.00000000	      0.00000000
     24.96114286	     -7.74227728	     -4.32506342	     -2.96622273	      0.76542070	      0.92240850	      0.45668147	     29.78724360	     -0.29527363	    -12.74316970	     13.72787437	     13.72787437	      3.48398793	      3.90658092	      8.92139788	      7.02475942	     -4.67384295	     -8.62779136	     16.91651652	     16.91651652	     18.83865646	     -8.86834008	      0.74182677	    -11.87713440	      7.34506943	      0.29515158	      0.74446189	    -12.96012437	    -18.79275942	     25.23191070	     46.16849286	      0.00000000	      0.00000000	      5.41294586	    -17.67617742	      0.20479444	     84.81171573	     46.15023807	      0.00000000	      0.00000000
     24.97421429	     -7.82743780	     -4.11828385	     -2.93351532	      0.76606629	      0.92087512	      0.45775636	     29.54338359	     -0.41955201	    -13.14666835	     13.13284655	     13.13284655	      3.51078305	      3.98575335	      8.96951865	      6.54301249	     -4.47360190	     -8.61567867	     16.80258713	     16.80258713	     19.22320638	     -8.84849105	      0.61872619	    -11.59767572	      7.24660534	      0.34500210	      1.41949626	    -12.67783982	    -18.69962609	     25.53354783	     46.15485177	      0.00000000	      0.00000000	      5.31749379	    -17.27540963	      0.46141367	     84.73962269	     46.14092550	      0.00000000	      0.00000000
     24.98728571	     -7.90762142	     -4.02075897	     -2.87995459	      0.76697460	      0.91947015	      0.45897260	     29.28927563	     -0.48440434	    -13.59602102	     13.03288669	     13.03288669	      3.50634371	      3.83051557	      8.91656480	      6.05488906	     -4.40365910	     -8.52565349	     16.72438396	     16.72438396	     19.62328004	     -8.85475770	      0.50210079	    -11.31704136	      7.26889115	      0.57548143	      1.95899316	    -12.51157683	    -18.63410078	     25.76601842	     46.14443288	      0.00000000	      0.00000000	      5.11017671	    -17.06117527	      0.61020342	     84.62410878	     46.13213628	      0.00000000	      0.00000000
     25.00035714	     -7.86628249	     -3.99597979	     -2.77398573	      0.76820959	      0.91844466	      0.46011387	     28.87028279	     -0.54670929	    -14.05422025	     13.27496939	     13.27496939	      3.40027644	      3.60022214	      8.66962114	      5.40375834	     -4.40479947	     -8.44722070	     16.60162528	     16.60162528	     19.93322810	     -8.83855392	      0.47428999	    -11.11866943	      7.46548518	      0.64670146	      2.71665235	    -12.27937202	    -18.52976003	     26.12492061	     46.12745754	      0.00000000	      0.00000000	      4.75105226	    -16.60599983	      0.92263205	     84.34725974	     46.11120801	      0.00000000	      0.00000000
     25.01342857	     -7.74021052	     -3.98613585	     -2.67364981	      0.76970637	      0.91757613	      0.46139576	     28.46183538	     -0.62164439	    -14.41427528	     13.97526397	     13.97526397	      3.32610075	      3.16746251	      8.11494891	      4.68079431	     -4.43429248	     -8.33201555	     16.56194150	     16.56194150	     20.24020235	     -8.85875387	      0.48919627	    -10.99656614	      7.67718852	      0.68913532	      3.48717569	    -12.10918401	    -18.40192133	     26.53363050	     46.10715510	      0.00000000	      0.00000000	      4.27719532	    -16.23498830	      1.20073498	     83.87869278	     46.09007949	      0.00000000	      0.00000000
     25.02650000	     -7.57687764	     -3.68240891	     -2.54172408	      0.77146640	      0.91645721	      0.46266863	     28.01429113	     -0.91686732	    -14.13667506	     14.55937825	     14.55937825	      0.42404522	      1.30245373	     -1.19783671	      4.06213162	     -4.15562806	     -8.13756768	     16.83198263	     16.83198263	     20.98593087	     -8.87885399	      1.66532235	    -10.79121864	      7.57560648	      0.54732636	      3.51972418	    -12.28990796	    -15.10852370	     28.59961571	     45.84190853	      0.00000000	      0.00000000	      3.98509511	    -16.03512085	      1.29583677	     82.42564216	     46.31540127	      0.00000000	      0.00000000
